<svg xmlns="http://www.w3.org/2000/svg" xmlns:xlink="http://www.w3.org/1999/xlink" version="1.1" viewBox="0 0 172 172">
    <g fill="none" fill-rule="nonzero" stroke="none" stroke-width="1" stroke-linecap="butt" stroke-linejoin="miter" stroke-miterlimit="10" stroke-dasharray="" stroke-dashoffset="0" font-family="none" font-weight="none" font-size="none" text-anchor="none" style="mix-blend-mode: normal">
        <path d="M0,172v-172h172v172z" fill="#ffffff" />
        <g fill="#084d4c">
            <path d="M11.46667,28.66667l0.08958,68.8h9.1151l50.39062,52.6862c2.15942,2.91902 5.57375,4.6428 9.20469,4.64714c6.33287,0 11.46667,-5.1338 11.46667,-11.46667c-0.00624,-0.54373 -0.05114,-1.08634 -0.13438,-1.6237c1.77386,1.06007 3.80123,1.62108 5.86771,1.6237c6.33287,0 11.46667,-5.1338 11.46667,-11.46667c-0.00624,-0.54373 -0.05114,-1.08634 -0.13438,-1.6237c1.77386,1.06007 3.80123,1.62108 5.86771,1.6237c6.33287,0 11.46667,-5.1338 11.46667,-11.46667c-0.00624,-0.54373 -0.05114,-1.08634 -0.13438,-1.6237c1.77386,1.06007 3.80123,1.62108 5.86771,1.6237c6.33287,0 11.46667,-5.1338 11.46667,-11.46667c-0.00036,-3.01358 -1.18705,-5.90589 -3.30339,-8.0513l-0.14557,-0.13437c-0.24353,-0.23891 -0.49761,-0.46682 -0.76146,-0.68308l-33.8737,-30.55911c0,0 -20.9926,3.32954 -29.025,4.60234c-8.0324,1.2728 -30.35755,-1.39768 -30.35755,-28.24114c0,-8.3592 6.16226,-10.2125 10.07813,-11.64583c3.91013,-1.43907 15.72188,-5.55417 15.72188,-5.55417zM108.93333,28.66667c-1.00577,-0.00056 -2.00725,0.13122 -2.97864,0.39193c-0.00373,0 -0.00746,0 -0.0112,0l-0.04479,0.0112c-0.0112,0.00372 -0.0224,0.00745 -0.03359,0.0112c-0.40673,0.11591 -0.80673,0.25422 -1.19818,0.41432l-47.33359,16.37135v2.86667c0,7.91773 6.4156,14.33333 14.33333,14.33333c0.47967,0 0.93219,-0.09957 1.39974,-0.14558l0.05599,0.06719l1.18698,-0.19036c0.11182,-0.02089 0.22505,-0.03252 0.33593,-0.05599l34.28802,-5.43099c0,0 30.10556,26.93654 35.36302,32.19401c5.04533,5.04533 10.02966,8.85039 10.42526,19.42839h11.54505v-68.8l-22.93333,5.73333l-28.61067,-15.62109c-0.20182,-0.11823 -0.40721,-0.23027 -0.61589,-0.33594l-0.26875,-0.14557h-0.04479c-1.51996,-0.71757 -3.17908,-1.09221 -4.85989,-1.0974z" />
        </g>
    </g>
</svg>